<svg width="184" height="29" viewBox="0 0 184 29" fill="none" xmlns="http://www.w3.org/2000/svg">
<path d="M58.2802 7.7319H60.225L60.6406 5.82031H54.1372L50.5298 22.5297H57.0377L57.4533 20.6203H55.4774L58.2802 7.7319Z" fill="white"/>
<path d="M71.0693 5.82031H65.8149L59.2759 13.8082L62.781 22.5297H67.9375L64.3813 13.8652L71.0693 5.82031Z" fill="white"/>
<path d="M104.851 5.82031L96.0564 16.0264L98.2746 5.82031H93.7182L90.1108 22.5297H94.6428L103.429 12.4156L101.244 22.5297H105.778L109.41 5.82031H104.851Z" fill="white"/>
<path d="M106.127 1.52393H98.5122L98.0188 3.76177H105.64L106.127 1.52393Z" fill="white"/>
<path d="M184 5.82031H177.497L177.077 7.7319H179.03L176.248 20.6203H174.28L173.858 22.5297H180.366L184 5.82031Z" fill="white"/>
<path d="M175.18 16.0855L176.041 12.0981H171.233L172.598 5.82031H168.039L164.432 22.5297H168.964L170.366 16.0855H175.18Z" fill="white"/>
<path d="M163.187 9.40042L163.961 5.82031H151.251L147.644 22.5297H160.533L161.307 18.9496H152.954L153.63 15.8424H161.256L161.991 12.4287H154.372L155.03 9.40042H163.187Z" fill="white"/>
<path d="M79.5175 5.82031L69.7534 22.5297H74.481L76.2058 19.6831H82.5292L83.016 22.5297H87.4368L84.8697 5.82031H79.5175ZM77.975 16.1118L81.4401 10.0245L82.287 16.1118H77.975Z" fill="white"/>
<path d="M124.866 5.82031H119.514L111.842 18.9583H109.737L108.243 25.8711H112.791L113.518 22.5297H123.397L122.675 25.8711H127.222L128.727 18.9496H126.887L124.866 5.82031ZM121.323 10.5106L122.499 18.9561H116.516L121.323 10.5106Z" fill="white"/>
<path d="M133.212 9.40016H140.174L135.382 12.6847L134.815 15.3123H138.798C139.769 15.4261 140.26 15.8444 140.26 16.5691C140.255 16.727 140.238 16.8842 140.212 17.0399C140.084 17.6303 139.735 18.1513 139.234 18.4982C138.672 18.8761 138.002 19.0664 137.322 19.0413C135.989 19.0413 135.253 18.6756 135.099 17.9464C135.084 17.7767 135.084 17.606 135.099 17.4362H130.516C130.431 17.7473 130.39 18.0687 130.394 18.3909C130.394 18.4085 130.394 18.4325 130.394 18.4479C130.397 18.835 130.468 19.2187 130.603 19.5821C130.703 19.8697 130.837 20.1446 131.003 20.4011C131.411 21.0302 132.077 21.5411 133.004 21.9338C133.93 22.3265 135.108 22.5265 136.538 22.5338C137.836 22.5465 139.127 22.3314 140.349 21.8988C141.452 21.5167 142.452 20.8931 143.274 20.0748C144.037 19.3121 144.558 18.3475 144.775 17.2983C144.865 16.8961 144.913 16.486 144.919 16.0743C144.92 15.8103 144.894 15.547 144.841 15.2882C144.727 14.6529 144.396 14.075 143.903 13.6503C143.363 13.2088 142.73 12.8909 142.05 12.7197C141.872 12.6715 141.681 12.6321 141.487 12.5949C141.365 12.5708 141.25 12.5401 141.121 12.5204L141.032 12.492L145.602 9.39359L146.375 5.81348H133.986L133.212 9.40016Z" fill="white"/>
<path d="M0.675686 25.939L0 29.0001H36.6715L37.3383 25.939H0.675686Z" fill="white"/>
<path d="M24.1068 0L15.154 10.9352L18.9014 20.2588H8.12374L11.96 2.61666H14.6228L15.1918 0H6.29005L1.35132 22.8755H27.0141L22.1464 11.0119L29.1278 2.61666H36.1692H36.1736L32.364 20.2588H29.6701L29.0945 22.8755H38.0051L42.9771 0H24.1068Z" fill="white"/>
</svg>
